STARTFONT 2.1
FONT HAN-GB2312
SIZE 14 72 72
FONTBOUNDINGBOX 6 14 0 0
STARTPROPERTIES 1
BITCOUNT 8
ENDPROPERTIES
CHARS 26
STARTCHAR  00A4
ENCODING  164
SWIDTH  1000 0
DWIDTH  8 0
BBX  8 8 0 2
BITMAP
0000300000400000
0080FFF0F0FFA000
20E0FFE0E0FFF020
00F0FF4040FFF000
00E0FF4040FFE000
30FFFFE0E0FFFF30
0060FFF0E0FF6000
0000200000200000
ENDCHAR
STARTCHAR  00A7
ENCODING  167
SWIDTH  1000 0
DWIDTH  6 0
BBX  4 12 1 0
BITMAP
40E0F060
E0C0F0F0
F0A080A0
80FFC000
20E0FF80
E0FFFFF0
F0FFFFE0
80FFFF60
00A0FFA0
C0C0FFF0
E0FFFFE0
60F0F040
ENDCHAR
STARTCHAR  00A8
ENCODING  168
SWIDTH  1000 0
DWIDTH  5 0
BBX  5 2 0 10
BITMAP
30FF0030FF
2080002080
ENDCHAR
STARTCHAR  00B0
ENCODING  176
SWIDTH  1000 0
DWIDTH  4 0
BBX  2 4 1 8
BITMAP
A0A0
F0FF
E0E0
4040
ENDCHAR
STARTCHAR  00B1
ENCODING  177
SWIDTH  1000 0
DWIDTH  7 0
BBX  7 8 0 0
BITMAP
000000E0000000
000000E0000000
80E0E0FFE0E080
000000E0000000
000000E0000000
000000E0000000
00000000000000
A0E0E0E0E0E080
ENDCHAR
STARTCHAR  00D7
ENCODING  215
SWIDTH  1000 0
DWIDTH  10 0
BBX  11 9 -1 1
BITMAP
0000401000000030400000
0060FFC0100030F0F04000
00A0FFFFE060F0FFF04000
000080FFFFFFFFFF400000
00000080FFFFFFA0000000
000020E0FFFFFFFF600000
0020E0FFFF80E0FFFF6000
00A0FFFF600010C0FFC000
0000808000000000A01000
ENDCHAR
STARTCHAR  00E0
ENCODING  224
SWIDTH  1000 0
DWIDTH  6 0
BBX  6 13 0 0
BITMAP
0040F0400000
000060F03000
000000000000
10C0FFE06000
80FFE0FFFF20
60A040FFFF40
0060E0FFFF40
60FFF0FFFF40
E0FF60FFFF40
FFFF40FFFF40
FFFF40FFFF40
E0FFC0FFFF40
60FFC0FFFF40
ENDCHAR
STARTCHAR  00E1
ENCODING  225
SWIDTH  1000 0
DWIDTH  6 0
BBX  6 13 0 0
BITMAP
000060F04000
0020F0400000
000000000000
10C0FFE06000
80FFE0FFFF20
60A040FFFF40
0060E0FFFF40
60FFF0FFFF40
E0FF60FFFF40
FFFF40FFFF40
FFFF40FFFF40
E0FFC0FFFF40
60FFC0FFFF40
ENDCHAR
STARTCHAR  00E8
ENCODING  232
SWIDTH  1000 0
DWIDTH  7 0
BBX  6 14 0 0
BITMAP
003080300000
0000C0E00000
000010E08000
000000000000
10A0F0E06000
A0FFC0F0FF30
F0FF40C0FF80
FFFFA0E0FF80
FFFFFFFFFF80
FFFF40203020
FFFF40A0FF80
F0FF40C0FF80
A0FFC0F0FF20
10A0F0E04000
ENDCHAR
STARTCHAR  00E9
ENCODING  233
SWIDTH  1000 0
DWIDTH  7 0
BBX  6 14 0 0
BITMAP
000000806000
000060FF3000
0020F0600000
000000000000
10A0F0E06000
A0FFC0F0FF30
F0FF40A0FF80
FFFFE0F0FF80
FFFFFFFFFF80
FFFF40203020
FFFF40A0FF80
F0FF40C0FF80
A0FFC0F0FF20
10A0F0E04000
ENDCHAR
STARTCHAR  00EA
ENCODING  234
SWIDTH  1000 0
DWIDTH  7 0
BBX  6 14 0 0
BITMAP
000080300000
0080F0E01000
30FF40C08000
000000000000
10A0F0E06000
A0FFC0F0FF30
F0FF40C0FF80
FFFFA0E0FF80
FFFFFFFFFF80
FFFF40203020
FFFF40A0FF80
F0FF40C0FF80
A0FFC0F0FF20
10A0F0E04000
ENDCHAR
STARTCHAR  00EC
ENCODING  236
SWIDTH  1000 0
DWIDTH  4 0
BBX  4 13 0 0
BITMAP
30F0A000
0030E080
00000000
00FFFF40
00FFFF40
00FFFF40
00FFFF40
00FFFF40
00FFFF40
00FFFF40
00FFFF40
00FFFF40
00FFFF40
ENDCHAR
STARTCHAR  00ED
ENCODING  237
SWIDTH  1000 0
DWIDTH  4 0
BBX  4 13 0 0
BITMAP
0060FF60
30F06000
00000000
00FFFF40
00FFFF40
00FFFF40
00FFFF40
00FFFF40
00FFFF40
00FFFF40
00FFFF40
00FFFF40
00FFFF40
ENDCHAR
STARTCHAR  00F2
ENCODING  242
SWIDTH  1000 0
DWIDTH  6 0
BBX  6 14 0 0
BITMAP
004080100000
0010E0800000
000040FF3000
000000000000
10C0FFE03000
A0FFC0FFE000
F0FF40FFFF30
FFFF40FFFF40
FFFF40FFFF40
FFFF40FFFF40
FFFF40FFFF40
FFFF40FFFF30
A0FFE0FFE000
10C0FFE03000
ENDCHAR
STARTCHAR  00F3
ENCODING  243
SWIDTH  1000 0
DWIDTH  6 0
BBX  6 14 0 0
BITMAP
000020804000
0000A0E01000
0020F0300000
000000000000
10C0FFE03000
A0FFC0FFE000
F0FF40FFFF30
FFFF40FFFF40
FFFF40FFFF40
FFFF40FFFF40
FFFF40FFFF40
FFFF40FFFF30
A0FFE0FFE000
10C0FFE03000
ENDCHAR
STARTCHAR  00F7
ENCODING  247
SWIDTH  1000 0
DWIDTH  8 0
BBX  6 7 1 2
BITMAP
000000800000
000000FF0000
000000000000
FFFFFFFFFFFF
808080808080
000000800000
000000FF0000
ENDCHAR
STARTCHAR  00F9
ENCODING  249
SWIDTH  1000 0
DWIDTH  6 0
BBX  6 13 0 0
BITMAP
0040F0400000
000060F02000
000000000000
FFFF40FFFF40
FFFF40FFFF40
FFFF40FFFF40
FFFF40FFFF40
FFFF40FFFF40
FFFF40FFFF40
FFFF40FFFF40
FFFF40FFFF40
E0FFC0FFFF40
60F0E0FFFF40
ENDCHAR
STARTCHAR  00FA
ENCODING  250
SWIDTH  1000 0
DWIDTH  6 0
BBX  6 13 0 0
BITMAP
000080E02000
0040F0300000
000000000000
FFFF40FFFF40
FFFF40FFFF40
FFFF40FFFF40
FFFF40FFFF40
FFFF40FFFF40
FFFF40FFFF40
FFFF40FFFF40
FFFF40FFFF40
E0FFC0FFFF40
60F0E0FFFF40
ENDCHAR
STARTCHAR  00FC
ENCODING  252
SWIDTH  1000 0
DWIDTH  6 0
BBX  6 12 0 0
BITMAP
30FF0030FF00
208000208000
FFFF40FFFF40
FFFF40FFFF40
FFFF40FFFF40
FFFF40FFFF40
FFFF40FFFF40
FFFF40FFFF40
FFFF40FFFF40
FFFF40FFFF40
E0FFC0FFFF40
60F0E0FFFF40
ENDCHAR
STARTCHAR  2014
ENCODING  8212
SWIDTH  1000 0
DWIDTH  7 0
BBX  7 2 0 4
BITMAP
80808080808080
FFFFFFFFFFFFFF
ENDCHAR
STARTCHAR  2018
ENCODING  8216
SWIDTH  1000 0
DWIDTH  3 0
BBX  3 5 0 8
BITMAP
001000
60A000
FFE030
FFFF40
FFFF40
ENDCHAR
STARTCHAR  2019
ENCODING  8217
SWIDTH  1000 0
DWIDTH  3 0
BBX  3 5 0 7
BITMAP
FFFF40
FFFF40
E0FF40
80A000
100000
ENDCHAR
STARTCHAR  201C
ENCODING  8220
SWIDTH  1000 0
DWIDTH  6 0
BBX  6 5 0 8
BITMAP
001000001000
60A00060A000
FFE030FFE030
FFFF40FFFF40
FFFF40FFFF40
ENDCHAR
STARTCHAR  201D
ENCODING  8221
SWIDTH  1000 0
DWIDTH  6 0
BBX  6 5 0 7
BITMAP
FFFF40FFFF40
FFFF40FFFF40
E0FF40E0FF40
80A00080A000
100000100000
ENDCHAR
STARTCHAR  2026
ENCODING  8230
SWIDTH  1000 0
DWIDTH  10 0
BBX  10 3 0 0
BITMAP
E0E03030E0E000E0E030
FFFF4040FFFF00FFFF40
FFFF4040FFFF00FFFF40
ENDCHAR
STARTCHAR  2030
ENCODING  8240
SWIDTH  1000 0
DWIDTH  13 0
BBX  12 12 0 0
BITMAP
000000000060FF4000000000
A0F0A00000E0E00000000000
FFA0FF0060FF600000000000
FF00FF00E0E0000000000000
FF10FF40FF60000000000000
A0F0A0C0E000000000000000
000030FF80A0F0A000A0F0A0
0000A0F010FF20FF00FF20FF
0020FF8000FF00FF00FF00FF
00A0F01000FF20FF00FF20FF
10F0A00000E0FFE000E0FFE0
80FF20000030803000308030
ENDCHAR
ENDFONT
